<?xml version="1.0" standalone="no"?><!DOCTYPE svg PUBLIC "-//W3C//DTD SVG 1.1//EN" "http://www.w3.org/Graphics/SVG/1.1/DTD/svg11.dtd"><svg t="1701055071910" class="icon" viewBox="0 0 1056 1024" version="1.1" xmlns="http://www.w3.org/2000/svg" p-id="3762" xmlns:xlink="http://www.w3.org/1999/xlink" width="206.25" height="200"><path d="M302.08 549.344v0.672h488v-0.672a31.328 31.328 0 1 0 0-62.656v-0.672H302.08v0.672a31.328 31.328 0 1 0 0 62.656" fill="#ff0000" p-id="3763"></path><path d="M534.496 76.224c243.584 0 441.792 198.176 441.792 441.792 0 243.584-198.208 441.76-441.792 441.76-243.584 0-441.792-198.176-441.792-441.76 0-243.616 198.208-441.792 441.792-441.792m0 947.552c278.88 0 505.792-226.88 505.792-505.76C1040.32 239.104 813.44 12.224 534.496 12.224 255.616 12.224 28.704 239.104 28.704 518.016c0 278.88 226.912 505.76 505.792 505.76" fill="#ff0000" p-id="3764"></path></svg>